<svg width="12" height="12" viewBox="0 0 12 12" fill="none" xmlns="http://www.w3.org/2000/svg">
    <path d="M6.8084 10.5384L6.27323 11.0717C6.04662 11.2975 5.68019 11.2975 5.45599 11.0717L0.769565 6.40392C0.542958 6.1781 0.542958 5.81294 0.769565 5.58952L5.45599 0.919365C5.6826 0.693545 6.04903 0.693545 6.27323 0.919365L6.8084 1.45269C7.03742 1.68091 7.0326 2.05327 6.79876 2.27669L3.89385 5.03458H10.8222C11.1429 5.03458 11.4008 5.29163 11.4008 5.61114V6.37989C11.4008 6.6994 11.1429 6.95646 10.8222 6.95646H3.89385L6.79876 9.71435C7.03501 9.93776 7.03983 10.3101 6.8084 10.5384Z" fill="currentColor"/>
</svg>
