<svg width="589" height="52" viewBox="0 0 589 52" fill="none" xmlns="http://www.w3.org/2000/svg">
    <path d="M50.9193 12.205V51.885H43.3272V13.29H41.9327L33.5659 43.205H17.452L9.08521 13.29H7.69074V51.885H0.0986328V12.205H16.2125L24.8892 42.12H26.1287L34.8054 12.205H50.9193Z" fill="white"/>
    <path d="M63.1595 32.045C63.1595 42.43 71.2164 50.645 81.1326 50.645C91.0489 50.645 99.2607 42.43 99.2607 32.045C99.2607 21.66 91.0489 13.445 81.1326 13.445C71.2164 13.445 63.1595 21.66 63.1595 32.045ZM55.5674 32.045C55.5674 24.14 59.131 17.165 64.8638 12.205H97.4014C103.289 17.01 106.853 24.14 106.853 32.045C106.853 39.795 103.134 47.235 97.5564 51.885H65.0188C59.4409 47.39 55.5674 39.795 55.5674 32.045Z" fill="white"/>
    <path d="M120.023 28.79H129.629C131.953 28.79 134.897 26.93 134.897 23.675C134.897 20.42 132.418 18.405 129.629 18.405H120.023V28.79ZM130.869 12.205C136.601 12.205 142.489 16.39 142.489 23.52C142.489 30.805 136.137 35.145 130.869 35.145H129.474L143.109 50.18V51.73H135.207L120.488 35.145H120.023V51.73H112.431V12.205H130.869Z" fill="white"/>
    <path d="M171.774 37.315L164.956 13.445H163.562L156.744 37.315H171.774ZM183.239 50.335V51.885H175.957L173.633 43.67H155.04L152.716 51.885H145.434V50.335L156.434 12.205H172.083L183.239 50.335Z" fill="white"/>
    <path d="M219.185 12.205V13.755L208.029 51.885H192.38L181.225 13.755V12.205H188.662L199.508 50.645H200.902L211.748 12.205H219.185Z" fill="white"/>
    <path d="M249.554 42.74C249.554 38.71 246.61 36.23 242.892 35.455L234.525 33.75C228.482 32.665 221.975 28.015 221.975 21.195C221.975 17.94 223.369 14.53 226.003 12.205H250.948C254.047 15.305 255.442 20.575 255.442 23.83H247.85C247.85 18.56 244.751 13.29 238.708 13.29C232.356 13.29 229.567 17.01 229.567 20.885C229.567 25.07 233.13 26.775 236.539 27.55L244.596 29.255C250.174 30.34 257.146 33.75 257.146 42.895C257.146 46.77 255.287 50.025 253.118 51.885H224.454C221.975 49.25 220.115 45.22 220.115 40.26H227.707C227.707 45.995 231.891 50.8 238.553 50.8C245.526 50.645 249.554 47.08 249.554 42.74Z" fill="white"/>
    <path d="M270.471 12.205V30.03H270.936L287.979 12.205H296.036V13.755L280.387 30.185L297.121 50.335V51.885H288.909L275.429 35.3L270.471 40.57V51.885H262.879V12.205H270.471Z" fill="white"/>
    <path d="M314.164 9.105V7.555L317.573 0.27H323.926V1.665L318.658 8.95H314.164V9.105ZM325.475 37.315L318.658 13.445H317.263L310.446 37.315H325.475ZM336.941 50.335V51.885H329.658L327.334 43.67H308.896L306.572 51.885H299.29V50.335L310.291 12.205H325.94L336.941 50.335Z" fill="white"/>
    <path d="M406.199 32.045C406.199 39.795 402.48 47.235 396.902 51.885H364.364C358.787 47.39 354.913 39.95 354.913 32.045C354.913 24.14 358.477 17.165 364.21 12.205H396.747C399.381 14.375 402.48 18.095 404.184 22.28V23.83H396.747C394.268 19.025 389.31 13.29 380.478 13.29C370.562 13.29 362.505 21.66 362.505 31.89C362.505 42.275 370.562 50.49 380.478 50.49C389.465 50.49 396.902 43.825 398.297 34.99H380.478V28.635H406.044C406.199 29.875 406.199 30.96 406.199 32.045Z" fill="white"/>
    <path d="M433.003 37.315L426.186 13.29H424.792L417.974 37.16L433.003 37.315ZM444.469 50.335V51.885H437.187L434.863 43.67H416.425L414.101 51.885H406.818V50.335L417.819 12.205H433.468L444.469 50.335Z" fill="white"/>
    <path d="M448.188 51.885V12.205H455.78V45.53H474.218V51.885H448.188Z" fill="white"/>
    <path d="M504.741 51.885H477.472V12.205H504.741V18.56H485.064V28.79H502.107V35.145H485.064V45.53H504.741V51.885Z" fill="white"/>
    <path d="M518.221 28.79H527.827C530.151 28.79 533.095 26.93 533.095 23.675C533.095 20.42 530.616 18.405 527.827 18.405H518.221V28.79ZM529.067 12.205C534.8 12.205 540.687 16.39 540.687 23.52C540.687 30.805 534.335 35.145 529.067 35.145H527.672L541.307 50.18V51.73H533.405L518.686 35.145H518.221V51.73H510.629V12.205H529.067Z" fill="white"/>
    <path d="M553.702 12.205H546.11V51.885H553.702V12.205Z" fill="white"/>
    <path d="M588.255 51.885H560.985V12.205H588.255V18.56H568.577V28.79H585.621V35.145H568.577V45.53H588.255V51.885Z" fill="white"/>
</svg>
