<?xml version="1.0" standalone="no"?>
<!DOCTYPE svg PUBLIC "-//W3C//DTD SVG 20010904//EN"
 "http://www.w3.org/TR/2001/REC-SVG-20010904/DTD/svg10.dtd">
<svg version="1.0" xmlns="http://www.w3.org/2000/svg"
 width="700.000000pt" height="700.000000pt" viewBox="0 0 700.000000 700.000000"
 preserveAspectRatio="xMidYMid meet">
<metadata>
Created by potrace 1.14, written by Peter Selinger 2001-2017
</metadata>
<g transform="translate(0.000000,700.000000) scale(0.100000,-0.100000)"
fill="#000000" stroke="none">
<path d="M0 3500 l0 -3500 1006 0 1007 0 -112 106 c-200 190 -342 385 -466
639 -160 327 -227 610 -228 960 -1 198 11 311 49 485 95 432 305 801 645 1138
l103 102 1409 0 1409 0 132 -132 c194 -195 352 -416 462 -646 39 -82 44 -101
44 -163 l0 -69 -322 2 -321 3 -51 88 c-169 293 -416 534 -681 665 -205 102
-370 142 -617 149 -176 6 -268 -3 -418 -39 -512 -122 -952 -544 -1114 -1068
-60 -194 -71 -270 -70 -495 0 -225 11 -304 70 -495 164 -527 576 -925 1095
-1059 793 -204 1605 251 1858 1043 26 80 61 220 61 242 0 2 -346 4 -770 4
l-770 0 0 275 0 275 1104 0 1103 0 7 -46 c9 -72 7 -379 -4 -479 -57 -511 -293
-998 -662 -1366 l-120 -119 426 0 426 0 1 78 c0 71 35 199 472 1712 l472 1635
183 3 182 2 0 75 0 75 -155 0 -155 0 -116 113 c-197 190 -333 376 -454 622
-159 322 -232 631 -232 980 1 351 69 650 221 960 117 240 253 428 452 628
l117 117 -599 0 -599 0 0 -1710 0 -1710 -325 0 -325 0 0 1665 0 1666 -62 -3
-63 -3 -359 -1287 -360 -1288 -698 0 c-655 0 -697 1 -702 18 -3 9 -158 566
-346 1237 -187 671 -347 1244 -356 1273 l-15 52 -59 0 -60 0 0 -1665 0 -1665
-330 0 -330 0 0 1710 0 1710 -545 0 -545 0 0 -3500z"/>
<path d="M2493 6980 c3 -11 171 -591 373 -1290 l369 -1271 54 3 55 3 373 1285
c205 707 373 1286 373 1288 0 1 -361 2 -801 2 -793 0 -801 0 -796 -20z"/>
<path d="M6942 6372 c-256 -295 -402 -688 -402 -1082 0 -396 155 -808 409
-1090 l50 -55 1 1143 c0 628 -2 1142 -4 1142 -1 0 -26 -26 -54 -58z"/>
<path d="M6825 1888 c-92 -326 -170 -599 -173 -605 -3 -10 35 -13 172 -13
l176 0 0 605 c0 333 -1 605 -3 605 -2 0 -79 -267 -172 -592z"/>
<path d="M6417 362 c-53 -191 -97 -350 -97 -354 0 -5 153 -8 340 -8 l340 0 0
355 0 355 -242 0 -243 0 -98 -348z"/>
</g>
</svg>
