<svg width="449" height="55" viewBox="0 0 449 55" fill="none" xmlns="http://www.w3.org/2000/svg">
    <path d="M23.9989 12.895V26.69H22.9143C22.6044 24.055 21.9847 21.885 21.055 20.335C20.1254 18.785 18.8858 17.545 17.1815 16.615C15.4771 15.685 13.7728 15.22 11.9135 15.22C9.89928 15.22 8.19495 15.84 6.80048 17.08C5.40601 18.32 4.78622 19.715 4.78622 21.265C4.78622 22.505 5.25107 23.59 6.02577 24.52C7.2653 25.915 10.0542 27.93 14.7025 30.41C18.4211 32.425 20.9001 33.975 22.2946 35.06C23.689 36.145 24.6187 37.385 25.3934 38.78C26.1681 40.175 26.478 41.725 26.478 43.275C26.478 46.22 25.2384 48.855 22.9143 51.025C20.5902 53.195 17.6464 54.28 13.9278 54.28C12.8432 54.28 11.7586 54.125 10.674 53.97C10.0542 53.815 8.81472 53.505 6.95543 52.885C5.09614 52.265 3.85658 51.955 3.39176 51.955C2.92693 51.955 2.46214 52.11 2.3072 52.42C1.99732 52.73 1.84234 53.35 1.6874 54.28H0.602839V40.64H1.6874C2.15222 43.43 2.92695 45.6 3.70166 46.995C4.47636 48.39 5.87083 49.63 7.57518 50.56C9.27953 51.49 11.2937 51.955 13.4629 51.955C15.942 51.955 17.8013 51.335 19.1958 50.095C20.5902 48.855 21.3649 47.305 21.3649 45.6C21.3649 44.67 21.055 43.585 20.5902 42.655C20.1254 41.725 19.1957 40.795 18.1111 39.865C17.3364 39.245 15.3222 38.005 11.9135 36.145C8.50481 34.285 6.02578 32.735 4.63131 31.65C3.23685 30.565 2.15225 29.325 1.37754 27.93C0.602839 26.535 0.292938 24.985 0.292938 23.435C0.292938 20.645 1.37753 18.165 3.54671 15.995C5.71588 13.98 8.50481 12.895 11.9135 12.895C14.0827 12.895 16.2519 13.36 18.576 14.445C19.6606 14.91 20.4353 15.22 20.9001 15.22C21.3649 15.22 21.8297 15.065 22.1396 14.755C22.4495 14.445 22.7594 13.825 22.9143 12.895H23.9989Z" fill="#D9D9D9"/>
    <path d="M53.4377 33.2C56.2267 33.82 58.2409 34.75 59.6354 35.99C61.4947 37.85 62.4243 40.02 62.4243 42.655C62.4243 44.67 61.8045 46.53 60.565 48.39C59.3254 50.25 57.6211 51.49 55.4519 52.42C53.2828 53.195 49.8741 53.66 45.5357 53.66H26.7879V52.575H28.3373C30.0416 52.575 31.1262 52.11 31.9009 51.025C32.3657 50.405 32.5207 48.855 32.5207 46.685V20.8C32.5207 18.32 32.2108 16.77 31.746 16.15C30.9713 15.22 29.8867 14.91 28.3373 14.91H26.7879V13.825H43.9863C47.2401 13.825 49.7191 14.135 51.7334 14.6C54.6772 15.375 56.8464 16.615 58.3958 18.32C59.9452 20.025 60.7199 22.195 60.7199 24.52C60.7199 26.535 60.1002 28.24 58.8607 29.945C57.6211 31.65 55.7618 32.58 53.4377 33.2ZM38.0985 31.65C38.8732 31.805 39.6479 31.96 40.5776 31.96C41.5072 31.96 42.5918 32.115 43.6764 32.115C46.4653 32.115 48.6345 31.805 50.184 31.185C51.7334 30.565 52.663 29.635 53.4377 28.395C54.2124 27.155 54.5223 25.76 54.5223 24.21C54.5223 21.885 53.5927 19.87 51.7334 18.32C49.8741 16.615 47.0851 15.84 43.3666 15.84C41.3523 15.84 39.6479 15.995 38.0985 16.46V31.65ZM38.0985 50.715C40.4226 51.18 42.5918 51.49 44.761 51.49C48.3247 51.49 50.9586 50.715 52.8179 49.165C54.6772 47.615 55.6069 45.6 55.6069 43.275C55.6069 41.725 55.142 40.175 54.3673 38.78C53.5926 37.385 52.1982 36.3 50.3389 35.37C48.4796 34.44 46.1555 34.13 43.3666 34.13C42.127 34.13 41.1974 34.13 40.2677 34.13C39.3381 34.13 38.7183 34.285 38.2535 34.285V50.715H38.0985Z" fill="#D9D9D9"/>
    <path d="M79.4678 52.42V53.505H62.4243V52.42H63.8187C65.5231 52.42 66.6077 51.955 67.3824 51.025C67.8472 50.405 68.1571 48.855 68.1571 46.53V20.8C68.1571 18.785 68.0021 17.39 67.8472 16.77C67.6923 16.305 67.2275 15.84 66.6077 15.53C65.6781 15.065 64.9033 14.755 63.9737 14.755H62.5792V13.67H79.6227V14.755H78.2283C76.6789 14.755 75.4393 15.22 74.6646 16.15C74.1998 16.77 73.8899 18.32 73.8899 20.645V46.375C73.8899 48.39 74.0449 49.785 74.1998 50.405C74.3547 50.87 74.8195 51.335 75.4393 51.645C76.214 52.11 77.1437 52.42 78.0733 52.42H79.4678ZM77.4536 0.805L68.7769 10.88H67.8472L70.946 0.805H77.4536Z" fill="#D9D9D9"/>
    <path d="M119.443 53.505H108.907L95.4267 34.905C94.497 34.905 93.5674 34.905 92.9477 34.905C92.6378 34.905 92.4828 34.905 92.173 34.905C91.8631 34.905 91.5532 34.905 91.2433 34.905V46.375C91.2433 48.855 91.5532 50.405 92.018 51.025C92.7927 51.955 93.8773 52.265 95.4267 52.265H96.9761V53.35H79.9326V52.265H81.482C83.1863 52.265 84.4259 51.645 85.0457 50.56C85.5105 49.94 85.6654 48.545 85.6654 46.22V20.8C85.6654 18.32 85.3555 16.77 84.8907 16.15C84.116 15.22 83.0314 14.91 81.482 14.91H79.9326V13.825H94.3421C98.5255 13.825 101.624 14.135 103.639 14.755C105.653 15.375 107.357 16.46 108.752 18.165C110.146 19.87 110.921 21.73 110.921 24.055C110.921 26.535 110.146 28.55 108.597 30.41C107.047 32.27 104.568 33.51 101.16 34.285L109.371 45.755C111.231 48.39 112.78 50.095 114.175 51.025C115.569 51.955 117.273 52.42 119.443 52.73V53.505ZM91.2433 33.045C91.5532 33.045 91.8631 33.045 92.173 33.045C92.4828 33.045 92.6378 33.045 92.7927 33.045C96.5113 33.045 99.4552 32.27 101.314 30.565C103.174 28.86 104.258 26.845 104.258 24.365C104.258 21.885 103.484 19.87 101.934 18.32C100.385 16.77 98.3706 15.995 95.7366 15.995C94.652 15.995 93.1026 16.15 91.0884 16.615V33.045H91.2433Z" fill="#D9D9D9"/>
    <path d="M136.021 31.495L150.741 46.065C153.22 48.545 155.234 50.095 156.938 51.025C158.643 51.955 160.347 52.42 162.051 52.575V53.66H143.149V52.575C144.233 52.575 145.163 52.42 145.628 51.955C146.092 51.49 146.402 51.18 146.402 50.715C146.402 50.25 146.247 49.785 146.092 49.475C145.937 49.165 145.318 48.39 144.233 47.46L130.598 33.82V46.685C130.598 48.7 130.753 50.095 130.908 50.715C131.063 51.18 131.528 51.645 132.148 51.955C132.922 52.42 133.852 52.73 134.782 52.73H136.176V53.815H119.288V52.73H120.682C122.386 52.73 123.471 52.265 124.246 51.335C124.711 50.715 125.02 49.165 125.02 46.84V20.8C125.02 18.785 124.866 17.39 124.711 16.77C124.556 16.305 124.091 15.84 123.471 15.53C122.541 15.065 121.767 14.755 120.837 14.755H119.443V13.67H136.021V14.755H134.627C133.697 14.755 132.767 14.91 131.993 15.375C131.373 15.685 130.908 16.15 130.753 16.77C130.443 17.39 130.443 18.63 130.443 20.645V32.735C130.908 32.425 132.148 31.185 134.472 29.015C140.205 23.745 143.768 20.18 145.008 18.32C145.473 17.545 145.783 16.925 145.783 16.305C145.783 15.84 145.628 15.53 145.163 15.065C144.698 14.6 144.078 14.6 143.149 14.6H142.219V13.515H156.783V14.6C155.854 14.6 155.079 14.755 154.459 14.91C153.685 15.065 152.91 15.53 151.825 16.15C150.741 16.77 149.501 17.7 148.107 19.095C147.642 19.56 145.628 21.42 142.219 25.14L136.021 31.495Z" fill="#D9D9D9"/>
    <path d="M186.687 13.825H200.477V14.91H199.702C199.237 14.91 198.462 15.065 197.533 15.53C196.603 15.995 195.674 16.615 194.899 17.39C194.124 18.165 193.039 19.56 191.955 21.42L182.349 36.455V46.375C182.349 48.855 182.659 50.405 183.123 50.87C183.898 51.645 184.983 52.11 186.687 52.11H187.926V53.195H171.038V52.11H172.432C174.137 52.11 175.376 51.645 175.996 50.56C176.461 49.94 176.616 48.545 176.616 46.22V36.765L165.77 20.18C164.53 18.165 163.601 17.08 163.136 16.46C162.671 15.995 161.741 15.375 160.347 14.755C159.882 14.6 159.417 14.445 158.643 14.445V13.36H175.686V14.445H174.756C173.827 14.445 173.052 14.6 172.277 15.065C171.503 15.53 171.193 16.15 171.193 16.925C171.193 17.7 171.813 18.94 173.052 20.8L181.419 33.665L189.166 21.42C190.405 19.56 190.87 18.165 190.87 17.39C190.87 16.77 190.715 16.305 190.405 15.995C190.096 15.53 189.786 15.22 189.166 14.91C188.701 14.6 187.771 14.6 186.842 14.6V13.825H186.687Z" fill="#D9D9D9"/>
    <path d="M233.634 12.895C238.747 12.895 243.24 14.91 247.114 18.785C250.833 22.66 252.847 27.62 252.847 33.51C252.847 39.555 250.987 44.515 247.114 48.545C243.24 52.575 238.747 54.59 233.324 54.59C227.901 54.59 223.253 52.575 219.534 48.7C215.816 44.825 213.957 39.71 213.957 33.665C213.957 27.31 216.126 22.195 220.464 18.165C224.028 14.6 228.521 12.895 233.634 12.895ZM233.169 15.065C229.606 15.065 226.817 16.46 224.648 19.095C222.014 22.35 220.619 27.155 220.619 33.51C220.619 40.02 222.013 44.98 224.802 48.545C226.972 51.18 229.761 52.575 233.169 52.575C236.888 52.575 239.987 51.18 242.466 48.235C244.945 45.29 246.184 40.795 246.184 34.44C246.184 27.62 244.79 22.505 242.156 19.25C239.832 16.305 236.888 15.065 233.169 15.065Z" fill="#D9D9D9"/>
    <path d="M249.903 13.825H260.749L285.074 43.585V20.645C285.074 18.165 284.765 16.615 284.3 16.15C283.525 15.375 282.44 14.91 280.891 14.91H279.497V13.825H293.286V14.91H291.892C290.187 14.91 288.948 15.375 288.328 16.46C287.863 17.08 287.708 18.475 287.708 20.8V54.28H286.624L260.439 22.35V46.84C260.439 49.32 260.749 50.87 261.214 51.335C261.988 52.11 263.073 52.575 264.622 52.575H266.017V53.66H252.227V52.575H253.621C255.326 52.575 256.565 52.11 257.185 51.025C257.65 50.405 257.805 49.01 257.805 46.685V19.095C256.72 17.7 255.791 16.925 255.171 16.46C254.551 15.995 253.776 15.685 252.537 15.22C251.917 15.065 251.142 14.91 249.903 14.91V13.825Z" fill="#D9D9D9"/>
    <path d="M354.023 42.5L354.953 42.655L351.544 53.505H320.711V52.42H322.26C323.965 52.42 325.204 51.8 325.824 50.715C326.289 50.095 326.444 48.7 326.444 46.375V20.8C326.444 18.32 326.134 16.77 325.669 16.15C324.894 15.22 323.81 14.91 322.26 14.91H320.711V13.825H338.684V14.91C336.515 14.91 335.12 15.065 334.191 15.53C333.416 15.995 332.796 16.46 332.486 17.08C332.177 17.7 332.022 19.25 332.022 21.575V46.53C332.022 48.08 332.177 49.32 332.486 49.94C332.796 50.405 333.106 50.715 333.571 50.87C334.036 51.025 335.585 51.18 338.064 51.18H341.008C344.107 51.18 346.121 51.025 347.361 50.56C348.6 50.095 349.685 49.32 350.769 48.235C351.854 47.15 353.094 44.98 354.023 42.5Z" fill="#D9D9D9"/>
    <path d="M371.377 52.42V53.505H354.333V52.42H355.728C357.432 52.42 358.517 51.955 359.291 51.025C359.756 50.405 360.066 48.855 360.066 46.53V20.8C360.066 18.785 359.911 17.39 359.756 16.77C359.601 16.305 359.136 15.84 358.517 15.53C357.587 15.065 356.812 14.755 355.883 14.755H354.488V13.67H371.532V14.755H370.137C368.588 14.755 367.348 15.22 366.573 16.15C366.109 16.77 365.799 18.32 365.799 20.645V46.375C365.799 48.39 365.954 49.785 366.109 50.405C366.264 50.87 366.728 51.335 367.348 51.645C368.123 52.11 369.053 52.42 369.982 52.42H371.377Z" fill="#D9D9D9"/>
    <path d="M371.067 13.825H381.913L406.238 43.585V20.645C406.238 18.165 405.929 16.615 405.464 16.15C404.689 15.375 403.604 14.91 402.055 14.91H400.66V13.825H414.45V14.91H413.056C411.351 14.91 410.112 15.375 409.492 16.46C409.027 17.08 408.872 18.475 408.872 20.8V54.28H407.788L381.603 22.35V46.84C381.603 49.32 381.913 50.87 382.377 51.335C383.152 52.11 384.237 52.575 385.786 52.575H387.181V53.66H373.391V52.575H374.785C376.49 52.575 377.729 52.11 378.349 51.025C378.814 50.405 378.969 49.01 378.969 46.685V19.095C377.884 17.7 376.954 16.925 376.335 16.46C375.715 15.995 374.94 15.685 373.701 15.22C373.081 15.065 372.306 14.91 371.067 14.91V13.825Z" fill="#D9D9D9"/>
    <path d="M426.071 15.995V31.65H434.747C437.072 31.65 438.466 31.34 439.241 30.565C440.325 29.635 440.79 28.085 440.945 25.76H442.03V39.555H440.945C440.635 37.695 440.325 36.455 440.17 35.835C439.861 35.215 439.241 34.595 438.466 34.285C437.691 33.82 436.452 33.665 434.747 33.665H426.071V46.84C426.071 48.545 426.226 49.63 426.381 50.095C426.536 50.405 426.846 50.715 427.155 51.025C427.62 51.18 428.24 51.335 429.325 51.335H435.987C438.156 51.335 439.861 51.18 440.945 50.87C442.03 50.56 442.959 49.94 443.889 49.01C445.129 47.77 446.368 45.91 447.608 43.585H448.847L445.438 53.505H414.76V52.42H416.155C417.084 52.42 418.014 52.265 418.789 51.8C419.408 51.49 419.873 51.025 420.028 50.405C420.183 49.785 420.338 48.545 420.338 46.53V20.8C420.338 18.32 420.028 16.77 419.563 16.15C418.789 15.375 417.704 14.91 416 14.91H414.605V13.825H445.283L445.748 22.505H444.664C444.199 20.49 443.734 18.94 443.269 18.165C442.804 17.39 442.03 16.77 441.1 16.305C440.325 15.995 438.931 15.84 436.917 15.84H426.071V15.995Z" fill="#D9D9D9"/>
    <path d="M322.261 35.835H291.272V33.665H322.261V35.835Z" fill="#D9D9D9"/>
</svg>
