<svg width="11" height="10" viewBox="0 0 11 10" fill="none" xmlns="http://www.w3.org/2000/svg">
    <path fill-rule="evenodd" clip-rule="evenodd" d="M9.60355 1.60355C9.79882 1.40829 9.79882 1.09171 9.60355 0.896447C9.40829 0.701184 9.09171 0.701184 8.89645 0.896447L5.5 4.29289L2.10355 0.896447C1.90829 0.701184 1.59171 0.701184 1.39645 0.896447C1.20118 1.09171 1.20118 1.40829 1.39645 1.60355L4.79289 5L1.39645 8.39645C1.20118 8.59171 1.20118 8.90829 1.39645 9.10355C1.59171 9.29882 1.90829 9.29882 2.10355 9.10355L5.5 5.70711L8.89645 9.10355C9.09171 9.29882 9.40829 9.29882 9.60355 9.10355C9.79882 8.90829 9.79882 8.59171 9.60355 8.39645L6.20711 5L9.60355 1.60355Z" fill="currentColor"/>
</svg>
